<svg xmlns="http://www.w3.org/2000/svg" viewBox="0 0 1000 680" font-family='Microsoft YaHei','SimHei',sans-serif>
<defs>
  <marker id="arr" markerWidth="10" markerHeight="8" refX="9" refY="4" orient="auto"><path d="M0,0 L10,4 L0,8 z" fill="#475569"/></marker>
  <marker id="arrb" markerWidth="10" markerHeight="8" refX="9" refY="4" orient="auto"><path d="M0,0 L10,4 L0,8 z" fill="#2563eb"/></marker>
</defs>
<rect width="100%" height="100%" fill="#ffffff"/>
<text x="480" y="34" text-anchor="middle" font-size="22" font-weight="700" fill="#0f172a">MetaProfile 系统架构图（三层架构）</text><rect x="40" y="60" width="920" height="90" rx="10" fill="#f1f5f9" stroke="#94a3b8" stroke-dasharray="6,4" stroke-width="1.2"/><text x="52" y="80" font-size="12" fill="#64748b" font-weight="700">前端展示层 (Frontend · React + Ant Design + G6)</text><rect x="80" y="90" width="150" height="46" rx="8" fill="#dbeafe" stroke="#334155" stroke-width="1.2"/><text x="155.0" y="113.0" text-anchor="middle" font-size="14" fill="#0f172a" font-weight="600">Dashboard</text><rect x="245" y="90" width="150" height="46" rx="8" fill="#dbeafe" stroke="#334155" stroke-width="1.2"/><text x="320.0" y="113.0" text-anchor="middle" font-size="14" fill="#0f172a" font-weight="600">四大画像</text><rect x="410" y="90" width="150" height="46" rx="8" fill="#dbeafe" stroke="#334155" stroke-width="1.2"/><text x="485.0" y="113.0" text-anchor="middle" font-size="14" fill="#0f172a" font-weight="600">三大分析</text><rect x="575" y="90" width="150" height="46" rx="8" fill="#dbeafe" stroke="#334155" stroke-width="1.2"/><text x="650.0" y="113.0" text-anchor="middle" font-size="14" fill="#0f172a" font-weight="600">数据源配置</text><rect x="740" y="90" width="180" height="46" rx="8" fill="#fef9c3" stroke="#334155" stroke-width="1.2"/><text x="830.0" y="109.0" text-anchor="middle" font-size="14" fill="#0f172a" font-weight="600">nginx 反向代理</text><text x="830.0" y="127.0" text-anchor="middle" font-size="11" fill="#475569">/api-* → backend</text><line x1="500" y1="150" x2="500" y2="195" stroke="#2563eb" stroke-width="1.6" marker-end="url(#arrb)"/><text x="500.0" y="166.5" text-anchor="middle" font-size="11" fill="#334155">REST /api/v1</text><rect x="40" y="200" width="920" height="95" rx="10" fill="#f1f5f9" stroke="#94a3b8" stroke-dasharray="6,4" stroke-width="1.2"/><text x="52" y="220" font-size="12" fill="#64748b" font-weight="700">分析层 (Analysis · 消费画像 REST API)</text><rect x="80" y="232" width="280" height="50" rx="8" fill="#dcfce7" stroke="#334155" stroke-width="1.2"/><text x="220.0" y="257.0" text-anchor="middle" font-size="14" fill="#0f172a" font-weight="600">前沿技术扫描监测 scan_monitor</text><rect x="380" y="232" width="260" height="50" rx="8" fill="#dcfce7" stroke="#334155" stroke-width="1.2"/><text x="510.0" y="257.0" text-anchor="middle" font-size="14" fill="#0f172a" font-weight="600">新技术发现 new_tech_discovery</text><rect x="660" y="232" width="260" height="50" rx="8" fill="#dcfce7" stroke="#334155" stroke-width="1.2"/><text x="790.0" y="257.0" text-anchor="middle" font-size="14" fill="#0f172a" font-weight="600">科技动态选题 topic_selection</text><line x1="500" y1="295" x2="500" y2="325" stroke="#2563eb" stroke-width="1.6" marker-end="url(#arrb)"/><rect x="40" y="330" width="920" height="95" rx="10" fill="#f1f5f9" stroke="#94a3b8" stroke-dasharray="6,4" stroke-width="1.2"/><text x="52" y="350" font-size="12" fill="#64748b" font-weight="700">画像层 (Profile · 四类实体业务封装)</text><rect x="80" y="362" width="210" height="50" rx="8" fill="#ede9fe" stroke="#334155" stroke-width="1.2"/><text x="185.0" y="387.0" text-anchor="middle" font-size="14" fill="#0f172a" font-weight="600">技术画像 profile_tech</text><rect x="305" y="362" width="210" height="50" rx="8" fill="#ede9fe" stroke="#334155" stroke-width="1.2"/><text x="410.0" y="387.0" text-anchor="middle" font-size="14" fill="#0f172a" font-weight="600">项目画像 profile_project</text><rect x="530" y="362" width="210" height="50" rx="8" fill="#ede9fe" stroke="#334155" stroke-width="1.2"/><text x="635.0" y="387.0" text-anchor="middle" font-size="14" fill="#0f172a" font-weight="600">机构画像 profile_org</text><rect x="755" y="362" width="165" height="50" rx="8" fill="#ede9fe" stroke="#334155" stroke-width="1.2"/><text x="837.5" y="387.0" text-anchor="middle" font-size="14" fill="#0f172a" font-weight="600">人物画像 profile_person</text><line x1="500" y1="425" x2="500" y2="455" stroke="#2563eb" stroke-width="1.6" marker-end="url(#arrb)"/><rect x="40" y="460" width="920" height="95" rx="10" fill="#f1f5f9" stroke="#94a3b8" stroke-dasharray="6,4" stroke-width="1.2"/><text x="52" y="480" font-size="12" fill="#64748b" font-weight="700">底座层 (Foundation · 重点目标对象模型)</text><rect x="60" y="492" width="150" height="50" rx="8" fill="#ffedd5" stroke="#334155" stroke-width="1.2"/><text x="135.0" y="513.0" text-anchor="middle" font-size="14" fill="#0f172a" font-weight="600">采集 collectors</text><text x="135.0" y="531.0" text-anchor="middle" font-size="11" fill="#475569">8 数据源适配器</text><rect x="222" y="492" width="130" height="50" rx="8" fill="#ffedd5" stroke="#334155" stroke-width="1.2"/><text x="287.0" y="513.0" text-anchor="middle" font-size="14" fill="#0f172a" font-weight="600">清洗 cleaners</text><text x="287.0" y="531.0" text-anchor="middle" font-size="11" fill="#475569">去重/归一/校验</text><rect x="364" y="492" width="120" height="50" rx="8" fill="#ffedd5" stroke="#334155" stroke-width="1.2"/><text x="424.0" y="513.0" text-anchor="middle" font-size="14" fill="#0f172a" font-weight="600">NER ner</text><text x="424.0" y="531.0" text-anchor="middle" font-size="11" fill="#475569">BERT-CRF/UIE</text><rect x="496" y="492" width="130" height="50" rx="8" fill="#ffedd5" stroke="#334155" stroke-width="1.2"/><text x="561.0" y="513.0" text-anchor="middle" font-size="14" fill="#0f172a" font-weight="600">抽取 extractors</text><text x="561.0" y="531.0" text-anchor="middle" font-size="11" fill="#475569">LLM Function</text><rect x="638" y="492" width="130" height="50" rx="8" fill="#ffedd5" stroke="#334155" stroke-width="1.2"/><text x="703.0" y="513.0" text-anchor="middle" font-size="14" fill="#0f172a" font-weight="600">消歧/融合</text><text x="703.0" y="531.0" text-anchor="middle" font-size="11" fill="#475569">Embedding+LLM</text><rect x="780" y="492" width="140" height="50" rx="8" fill="#ffedd5" stroke="#334155" stroke-width="1.2"/><text x="850.0" y="513.0" text-anchor="middle" font-size="14" fill="#0f172a" font-weight="600">存储 storage</text><text x="850.0" y="531.0" text-anchor="middle" font-size="11" fill="#475569">PG/ES/Neo4j</text><line x1="500" y1="575" x2="500" y2="605" stroke="#2563eb" stroke-width="1.6" marker-end="url(#arrb)"/><rect x="40" y="590" width="920" height="80" rx="10" fill="#f1f5f9" stroke="#94a3b8" stroke-dasharray="6,4" stroke-width="1.2"/><text x="52" y="610" font-size="12" fill="#64748b" font-weight="700">共享层 (Shared · config / db / llm / nlp / schemas / utils)</text><rect x="80" y="615" width="880" height="40" rx="8" fill="#e2e8f0" stroke="#334155" stroke-width="1.2"/><text x="520.0" y="635.0" text-anchor="middle" font-size="12" fill="#0f172a" font-weight="600">Pydantic 数据规范 · LiteLLM 网关 · BGE Embedding · Celery · structlog</text></svg>