<svg xmlns="http://www.w3.org/2000/svg" viewBox="0 0 1000 640" font-family='Microsoft YaHei','SimHei',sans-serif>
<defs>
  <marker id="arr" markerWidth="10" markerHeight="8" refX="9" refY="4" orient="auto"><path d="M0,0 L10,4 L0,8 z" fill="#475569"/></marker>
  <marker id="arrb" markerWidth="10" markerHeight="8" refX="9" refY="4" orient="auto"><path d="M0,0 L10,4 L0,8 z" fill="#2563eb"/></marker>
</defs>
<rect width="100%" height="100%" fill="#ffffff"/>
<text x="480" y="34" text-anchor="middle" font-size="22" font-weight="700" fill="#0f172a">MetaProfile 容器化部署图（Docker Compose）</text><rect x="410" y="70" width="180" height="44" rx="8" fill="#e0e7ff" stroke="#334155" stroke-width="1.2"/><text x="500.0" y="88.0" text-anchor="middle" font-size="14" fill="#0f172a" font-weight="600">用户浏览器</text><text x="500.0" y="106.0" text-anchor="middle" font-size="11" fill="#475569">http://localhost:80</text><line x1="500" y1="114" x2="500" y2="150" stroke="#2563eb" stroke-width="1.6" marker-end="url(#arrb)"/><text x="500.0" y="126.0" text-anchor="middle" font-size="11" fill="#334155">HTTP :80</text><rect x="40" y="155" width="920" height="80" rx="10" fill="#f1f5f9" stroke="#94a3b8" stroke-dasharray="6,4" stroke-width="1.2"/><text x="52" y="175" font-size="12" fill="#64748b" font-weight="700">应用层（自建镜像 ×2）</text><rect x="90" y="180" width="360" height="46" rx="8" fill="#dbeafe" stroke="#334155" stroke-width="1.2"/><text x="270.0" y="199.0" text-anchor="middle" font-size="14" fill="#0f172a" font-weight="600">frontend (nginx)</text><text x="270.0" y="217.0" text-anchor="middle" font-size="11" fill="#475569">metaprofile-frontend · :80</text><rect x="550" y="180" width="360" height="46" rx="8" fill="#bbf7d0" stroke="#334155" stroke-width="1.2"/><text x="730.0" y="199.0" text-anchor="middle" font-size="14" fill="#0f172a" font-weight="600">backend (uvicorn 复合 app)</text><text x="730.0" y="217.0" text-anchor="middle" font-size="11" fill="#475569">metaprofile-backend · :8000 · 77 路由</text><line x1="450" y1="203" x2="550" y2="203" stroke="#2563eb" stroke-width="2" marker-end="url(#arrb)"/><text x="500.0" y="197.0" text-anchor="middle" font-size="11" fill="#334155">反代 /api-*</text><line x1="500" y1="226" x2="500" y2="260" stroke="#2563eb" stroke-width="1.6" marker-end="url(#arrb)"/><rect x="40" y="265" width="920" height="200" rx="10" fill="#f1f5f9" stroke="#94a3b8" stroke-dasharray="6,4" stroke-width="1.2"/><text x="52" y="285" font-size="12" fill="#64748b" font-weight="700">基础设施层（不变 · 6 容器）</text><rect x="70" y="305" width="200" height="60" rx="8" fill="#fef3c7" stroke="#334155" stroke-width="1.2"/><text x="170.0" y="331.0" text-anchor="middle" font-size="14" fill="#0f172a" font-weight="600">postgres:15</text><text x="170.0" y="349.0" text-anchor="middle" font-size="11" fill="#475569">:5432 · 业务库</text><rect x="290" y="305" width="200" height="60" rx="8" fill="#fef3c7" stroke="#334155" stroke-width="1.2"/><text x="390.0" y="331.0" text-anchor="middle" font-size="14" fill="#0f172a" font-weight="600">elasticsearch:8</text><text x="390.0" y="349.0" text-anchor="middle" font-size="11" fill="#475569">:9200 · 全文+向量</text><rect x="510" y="305" width="200" height="60" rx="8" fill="#fef3c7" stroke="#334155" stroke-width="1.2"/><text x="610.0" y="331.0" text-anchor="middle" font-size="14" fill="#0f172a" font-weight="600">neo4j:5.16</text><text x="610.0" y="349.0" text-anchor="middle" font-size="11" fill="#475569">:7687 · 关系图谱</text><rect x="730" y="305" width="190" height="60" rx="8" fill="#fef3c7" stroke="#334155" stroke-width="1.2"/><text x="825.0" y="331.0" text-anchor="middle" font-size="14" fill="#0f172a" font-weight="600">redis:7</text><text x="825.0" y="349.0" text-anchor="middle" font-size="11" fill="#475569">:6379 · 缓存</text><rect x="180" y="385" width="280" height="60" rx="8" fill="#fef3c7" stroke="#334155" stroke-width="1.2"/><text x="320.0" y="411.0" text-anchor="middle" font-size="14" fill="#0f172a" font-weight="600">rabbitmq:3.12</text><text x="320.0" y="429.0" text-anchor="middle" font-size="11" fill="#475569">:5672 · Celery 队列</text><rect x="540" y="385" width="280" height="60" rx="8" fill="#fef3c7" stroke="#334155" stroke-width="1.2"/><text x="680.0" y="411.0" text-anchor="middle" font-size="14" fill="#0f172a" font-weight="600">litellm (LLM 代理)</text><text x="680.0" y="429.0" text-anchor="middle" font-size="11" fill="#475569">:4000 → Qwen/BGE</text><rect x="40" y="480" width="920" height="120" rx="10" fill="#f1f5f9" stroke="#94a3b8" stroke-dasharray="6,4" stroke-width="1.2"/><text x="52" y="500" font-size="12" fill="#64748b" font-weight="700">一次性 Job（复用 backend 镜像）</text><rect x="120" y="510" width="340" height="60" rx="8" fill="#e2e8f0" stroke="#334155" stroke-width="1.2"/><text x="290.0" y="536.0" text-anchor="middle" font-size="14" fill="#0f172a" font-weight="600">migrate</text><text x="290.0" y="554.0" text-anchor="middle" font-size="11" fill="#475569">alembic upgrade head · 建表</text><rect x="540" y="510" width="340" height="60" rx="8" fill="#e2e8f0" stroke="#334155" stroke-width="1.2"/><text x="710.0" y="536.0" text-anchor="middle" font-size="14" fill="#0f172a" font-weight="600">seed</text><text x="710.0" y="554.0" text-anchor="middle" font-size="11" fill="#475569">gen_mock_data.py · 100×4 + 图谱</text><line x1="290" y1="510" x2="290" y2="366" stroke="#94a3b8" stroke-width="1.2" marker-end="url(#arr)"/><line x1="710" y1="510" x2="710" y2="366" stroke="#94a3b8" stroke-width="1.2" marker-end="url(#arr)"/></svg>