<svg xmlns="http://www.w3.org/2000/svg" viewBox="0 0 1000 620" font-family='Microsoft YaHei','SimHei',sans-serif>
<defs>
  <marker id="arr" markerWidth="10" markerHeight="8" refX="9" refY="4" orient="auto"><path d="M0,0 L10,4 L0,8 z" fill="#475569"/></marker>
  <marker id="arrb" markerWidth="10" markerHeight="8" refX="9" refY="4" orient="auto"><path d="M0,0 L10,4 L0,8 z" fill="#2563eb"/></marker>
</defs>
<rect width="100%" height="100%" fill="#ffffff"/>
<text x="480" y="34" text-anchor="middle" font-size="22" font-weight="700" fill="#0f172a">MetaProfile 画像生成与查询流程图</text><rect x="70" y="120" width="180" height="90" rx="10" fill="#dbeafe" stroke="#334155" stroke-width="1.3"/><text x="160.0" y="148" text-anchor="middle" font-size="15" font-weight="700" fill="#0f172a">数据采集</text><text x="160.0" y="172" text-anchor="middle" font-size="11" fill="#475569">专利/论文/项目/</text><text x="160.0" y="188" text-anchor="middle" font-size="11" fill="#475569">企业/政策/招标</text><line x1="250" y1="165.0" x2="300" y2="165.0" stroke="#2563eb" stroke-width="2" marker-end="url(#arrb)"/><rect x="300" y="120" width="180" height="90" rx="10" fill="#dbeafe" stroke="#334155" stroke-width="1.3"/><text x="390.0" y="148" text-anchor="middle" font-size="15" font-weight="700" fill="#0f172a">数据清洗</text><text x="390.0" y="172" text-anchor="middle" font-size="11" fill="#475569">去重 · 归一</text><text x="390.0" y="188" text-anchor="middle" font-size="11" fill="#475569">· 校验 · 评分</text><line x1="480" y1="165.0" x2="530" y2="165.0" stroke="#2563eb" stroke-width="2" marker-end="url(#arrb)"/><rect x="530" y="120" width="180" height="90" rx="10" fill="#ede9fe" stroke="#334155" stroke-width="1.3"/><text x="620.0" y="148" text-anchor="middle" font-size="15" font-weight="700" fill="#0f172a">实体识别</text><text x="620.0" y="172" text-anchor="middle" font-size="11" fill="#475569">BERT-CRF + UIE</text><text x="620.0" y="188" text-anchor="middle" font-size="11" fill="#475569">集成 NER</text><line x1="710" y1="165.0" x2="760" y2="165.0" stroke="#2563eb" stroke-width="2" marker-end="url(#arrb)"/><rect x="760" y="120" width="180" height="90" rx="10" fill="#ede9fe" stroke="#334155" stroke-width="1.3"/><text x="850.0" y="148" text-anchor="middle" font-size="15" font-weight="700" fill="#0f172a">属性抽取</text><text x="850.0" y="172" text-anchor="middle" font-size="11" fill="#475569">LLM Function</text><text x="850.0" y="188" text-anchor="middle" font-size="11" fill="#475569">Calling</text><line x1="850.0" y1="210" x2="850.0" y2="230" stroke="#2563eb" stroke-width="2" marker-end="url(#arrb)"/><rect x="70" y="320" width="180" height="90" rx="10" fill="#ede9fe" stroke="#334155" stroke-width="1.3"/><text x="160.0" y="348" text-anchor="middle" font-size="15" font-weight="700" fill="#0f172a">关系抽取</text><text x="160.0" y="372" text-anchor="middle" font-size="11" fill="#475569">规则 + LLM</text><text x="160.0" y="388" text-anchor="middle" font-size="11" fill="#475569">三元组</text><line x1="250" y1="365.0" x2="300" y2="365.0" stroke="#2563eb" stroke-width="2" marker-end="url(#arrb)"/><rect x="300" y="320" width="180" height="90" rx="10" fill="#dcfce7" stroke="#334155" stroke-width="1.3"/><text x="390.0" y="348" text-anchor="middle" font-size="15" font-weight="700" fill="#0f172a">消歧融合</text><text x="390.0" y="372" text-anchor="middle" font-size="11" fill="#475569">Embedding 召回</text><text x="390.0" y="388" text-anchor="middle" font-size="11" fill="#475569">+ LLM 精判</text><line x1="480" y1="365.0" x2="530" y2="365.0" stroke="#2563eb" stroke-width="2" marker-end="url(#arrb)"/><rect x="530" y="320" width="180" height="90" rx="10" fill="#dcfce7" stroke="#334155" stroke-width="1.3"/><text x="620.0" y="348" text-anchor="middle" font-size="15" font-weight="700" fill="#0f172a">三库入库</text><text x="620.0" y="372" text-anchor="middle" font-size="11" fill="#475569">PG · ES · Neo4j</text><text x="620.0" y="388" text-anchor="middle" font-size="11" fill="#475569">统一门面</text><line x1="710" y1="365.0" x2="760" y2="365.0" stroke="#2563eb" stroke-width="2" marker-end="url(#arrb)"/><rect x="760" y="320" width="180" height="90" rx="10" fill="#fef9c3" stroke="#334155" stroke-width="1.3"/><text x="850.0" y="348" text-anchor="middle" font-size="15" font-weight="700" fill="#0f172a">画像生成</text><text x="850.0" y="372" text-anchor="middle" font-size="11" fill="#475569">统计 · 完整度</text><text x="850.0" y="388" text-anchor="middle" font-size="11" fill="#475569">· RAG 补全</text><rect x="60" y="330" width="880" height="90" rx="10" fill="#f1f5f9" stroke="#94a3b8" stroke-dasharray="6,4" stroke-width="1.2"/><text x="72" y="350" font-size="12" fill="#64748b" font-weight="700">查询与展示（画像层 REST API · 11 标准接口/类）</text><rect x="90" y="360" width="120" height="46" rx="8" fill="#fef9c3" stroke="#334155" stroke-width="1.2"/><text x="150.0" y="383.0" text-anchor="middle" font-size="12" fill="#0f172a" font-weight="600">查询/搜索</text><rect x="230" y="360" width="120" height="46" rx="8" fill="#fef9c3" stroke="#334155" stroke-width="1.2"/><text x="290.0" y="383.0" text-anchor="middle" font-size="12" fill="#0f172a" font-weight="600">语义检索</text><rect x="370" y="360" width="120" height="46" rx="8" fill="#fef9c3" stroke="#334155" stroke-width="1.2"/><text x="430.0" y="383.0" text-anchor="middle" font-size="12" fill="#0f172a" font-weight="600">批量/统计</text><rect x="510" y="360" width="120" height="46" rx="8" fill="#fef9c3" stroke="#334155" stroke-width="1.2"/><text x="570.0" y="383.0" text-anchor="middle" font-size="12" fill="#0f172a" font-weight="600">关系图谱</text><rect x="650" y="360" width="120" height="46" rx="8" fill="#fef9c3" stroke="#334155" stroke-width="1.2"/><text x="710.0" y="383.0" text-anchor="middle" font-size="12" fill="#0f172a" font-weight="600">变更日志</text><rect x="790" y="360" width="120" height="46" rx="8" fill="#fef9c3" stroke="#334155" stroke-width="1.2"/><text x="850.0" y="383.0" text-anchor="middle" font-size="12" fill="#0f172a" font-weight="600">RAG 补全</text><line x1="500" y1="415" x2="500" y2="450" stroke="#2563eb" stroke-width="1.6" marker-end="url(#arrb)"/><text x="500.0" y="426.5" text-anchor="middle" font-size="11" fill="#334155">前端 G6 关系图 / Timeline / 表格</text><rect x="60" y="460" width="880" height="120" rx="10" fill="#f1f5f9" stroke="#94a3b8" stroke-dasharray="6,4" stroke-width="1.2"/><text x="72" y="480" font-size="12" fill="#64748b" font-weight="700">存储</text><rect x="110" y="490" width="220" height="70" rx="8" fill="#fee2e2" stroke="#334155" stroke-width="1.2"/><text x="220.0" y="521.0" text-anchor="middle" font-size="14" fill="#0f172a" font-weight="600">PostgreSQL</text><text x="220.0" y="539.0" text-anchor="middle" font-size="11" fill="#475569">结构化属性 + 子表（JSON）</text><rect x="370" y="490" width="220" height="70" rx="8" fill="#fee2e2" stroke="#334155" stroke-width="1.2"/><text x="480.0" y="521.0" text-anchor="middle" font-size="14" fill="#0f172a" font-weight="600">Elasticsearch</text><text x="480.0" y="539.0" text-anchor="middle" font-size="11" fill="#475569">全文检索 + kNN 向量</text><rect x="630" y="490" width="250" height="70" rx="8" fill="#fee2e2" stroke="#334155" stroke-width="1.2"/><text x="755.0" y="521.0" text-anchor="middle" font-size="14" fill="#0f172a" font-weight="600">Neo4j</text><text x="755.0" y="539.0" text-anchor="middle" font-size="11" fill="#475569">实体节点 + 关系图谱</text></svg>