<svg xmlns="http://www.w3.org/2000/svg" viewBox="0 0 1200 600" width="1200" height="600">
  <defs>
    <marker id="arrowA" markerWidth="10" markerHeight="7" refX="9" refY="3.5" orient="auto">
      <polygon points="0 0, 10 3.5, 0 7" fill="#7c3aed"/>
    </marker>
    <marker id="arrowB" markerWidth="10" markerHeight="7" refX="9" refY="3.5" orient="auto">
      <polygon points="0 0, 10 3.5, 0 7" fill="#10b981"/>
    </marker>
    <marker id="arrowC" markerWidth="10" markerHeight="7" refX="9" refY="3.5" orient="auto">
      <polygon points="0 0, 10 3.5, 0 7" fill="#2563eb"/>
    </marker>
    <marker id="arrowE" markerWidth="10" markerHeight="7" refX="9" refY="3.5" orient="auto">
      <polygon points="0 0, 10 3.5, 0 7" fill="#f97316"/>
    </marker>
    <marker id="arrowF" markerWidth="10" markerHeight="7" refX="9" refY="3.5" orient="auto">
      <polygon points="0 0, 10 3.5, 0 7" fill="#7c3aed"/>
    </marker>
    <marker id="arrowG" markerWidth="10" markerHeight="7" refX="9" refY="3.5" orient="auto">
      <polygon points="0 0, 10 3.5, 0 7" fill="#ef4444"/>
    </marker>
    <marker id="arrowH" markerWidth="10" markerHeight="7" refX="9" refY="3.5" orient="auto">
      <polygon points="0 0, 10 3.5, 0 7" fill="#6b7280"/>
    </marker>
    <filter id="shadowSoft" x="-20%" y="-20%" width="140%" height="160%">
      <feDropShadow dx="0" dy="3" stdDeviation="6" flood-color="#0f172a" flood-opacity="0.12"/>
    </filter>
    <filter id="shadowGlass" x="-20%" y="-20%" width="140%" height="160%">
      <feDropShadow dx="0" dy="10" stdDeviation="16" flood-color="#020617" flood-opacity="0.28"/>
    </filter>
    <style>
    text { font-family: 'Microsoft YaHei','SimHei','PingFang SC',sans-serif; }
    .title { font-size: 30px; font-weight: 700; fill: #111827; }
    .subtitle { font-size: 14px; font-weight: 500; fill: #6b7280; }
    .section { font-size: 13px; font-weight: 700; fill: #2563eb; letter-spacing: 1.4px; }
    .section-sub { font-size: 12px; font-weight: 500; fill: #94a3b8; }
    .node-title { font-size: 18px; font-weight: 700; fill: #111827; }
    .node-sub { font-size: 12px; font-weight: 500; fill: #6b7280; }
    .node-type { font-size: 12px; font-weight: 700; fill: #9ca3af; letter-spacing: 0.08em; }
    .arrow-label { font-size: 12px; font-weight: 600; fill: #6b7280; }
    .legend { font-size: 12px; font-weight: 500; fill: #6b7280; }
    .footnote { font-size: 12px; font-weight: 500; fill: #94a3b8; }
    </style>
  </defs>
  <rect width="1200.0" height="600.0" fill="#ffffff"/>
  <text x="600.0" y="56" text-anchor="middle" class="title">ODS 数据流与部署拓扑</text>
  <text x="600.0" y="82" text-anchor="middle" class="subtitle">云→本地灌数 · 管线读写 · 前端查询</text>
  <rect x="30.0" y="90.0" width="280.0" height="470.0" rx="16.0" fill="#f8fafc" stroke="#94a3b8" stroke-width="1.4" stroke-dasharray="6 4"/>
  <text x="48.0" y="114.0" class="section">生产 / 灌数源</text>
  <rect x="330.0" y="90.0" width="540.0" height="470.0" rx="16.0" fill="#f0fdf4" stroke="#10b981" stroke-width="1.4" stroke-dasharray="6 4"/>
  <text x="348.0" y="114.0" class="section">本地开发环境 (DEV 子集)</text>
  <rect x="890.0" y="90.0" width="280.0" height="470.0" rx="16.0" fill="#eff6ff" stroke="#2563eb" stroke-width="1.4" stroke-dasharray="6 4"/>
  <text x="908.0" y="114.0" class="section">前端/查询</text>
  <path d="M 170.0,260.0 L 280.0,300.0 L 310.0,300.0 L 310.0,150.0 L 360.0,150.0 L 470.0,190.0" fill="none" stroke="#f97316" stroke-width="2.4" marker-end="url(#arrowE)"/>
  <path d="M 170.0,410.0 L 170.0,200.0 L 360.0,150.0 L 470.0,190.0" fill="none" stroke="#10b981" stroke-width="2.4" marker-end="url(#arrowB)"/>
  <path d="M 470.0,190.0 L 470.0,260.0" fill="none" stroke="#2563eb" stroke-width="2.4" marker-end="url(#arrowC)"/>
  <path d="M 470.0,260.0 L 730.0,180.0" fill="none" stroke="#10b981" stroke-width="2.4" marker-end="url(#arrowB)"/>
  <path d="M 580.0,305.0 L 620.0,255.0" fill="none" stroke="#10b981" stroke-width="2.4" marker-end="url(#arrowB)"/>
  <path d="M 580.0,305.0 L 620.0,365.0" fill="none" stroke="#10b981" stroke-width="2.4" marker-end="url(#arrowB)"/>
  <path d="M 730.0,290.0 L 864.0,290.0 L 864.0,440.0 L 730.0,440.0" fill="none" stroke="#2563eb" stroke-width="2.4" marker-end="url(#arrowC)"/>
  <path d="M 730.0,440.0 L 1030.0,390.0" fill="none" stroke="#2563eb" stroke-width="2.4" marker-end="url(#arrowC)"/>
  <ellipse cx="170.0" cy="272.5" rx="55.0" ry="12.5" fill="#ecfdf5" stroke="#10b981" stroke-width="2.2"/>
  <rect x="60.0" y="272.5" width="220.0" height="75.0" fill="#ecfdf5" stroke="#10b981" stroke-width="2.2"/>
  <ellipse cx="170.0" cy="347.5" rx="55.0" ry="12.5" fill="#ecfdf5" stroke="#10b981" stroke-width="2.2"/>
  <ellipse cx="170.0" cy="298.0" rx="55.0" ry="12.5" fill="none" stroke="#10b981" stroke-opacity="0.45" stroke-width="1.2"/>
  <ellipse cx="170.0" cy="320.0" rx="55.0" ry="12.5" fill="none" stroke="#10b981" stroke-opacity="0.25" stroke-width="1.2"/>
  <text x="170.0" y="304.0" text-anchor="middle" class="node-title">云 Doris 生产</text>
  <text x="170.0" y="328.0" text-anchor="middle" class="node-sub">10.242.0.1:9030
ods_zbzx · 同机房读</text>
  <rect x="60.0" y="410.0" width="220.0" height="80.0" rx="10.0" fill="#fff7ed" stroke="#f59e0b" stroke-width="1.8" filter="url(#shadowSoft)"/>
  <text x="170.0" y="450.0" text-anchor="middle" class="node-title">loader (_load_chunked*.py)</text>
  <text x="170.0" y="472.0" text-anchor="middle" class="node-sub">DELETE→INSERT 幂等
灌本地 Doris</text>
  <ellipse cx="470.0" cy="120.0" rx="55.0" ry="10.0" fill="#ecfdf5" stroke="#10b981" stroke-width="2.2"/>
  <rect x="360.0" y="120.0" width="220.0" height="60.0" fill="#ecfdf5" stroke="#10b981" stroke-width="2.2"/>
  <ellipse cx="470.0" cy="180.0" rx="55.0" ry="10.0" fill="#ecfdf5" stroke="#10b981" stroke-width="2.2"/>
  <ellipse cx="470.0" cy="140.4" rx="55.0" ry="10.0" fill="none" stroke="#10b981" stroke-opacity="0.45" stroke-width="1.2"/>
  <ellipse cx="470.0" cy="158.0" rx="55.0" ry="10.0" fill="none" stroke="#10b981" stroke-opacity="0.25" stroke-width="1.2"/>
  <text x="470.0" y="144.0" text-anchor="middle" class="node-title">本地 Doris dev 子集</text>
  <text x="470.0" y="168.0" text-anchor="middle" class="node-sub">127.0.0.1:9030
20% 抽样 + company 封顶 10M</text>
  <rect x="360.0" y="260.0" width="220.0" height="90.0" rx="10.0" fill="#dcfce7" stroke="#16a34a" stroke-width="1.8" filter="url(#shadowSoft)"/>
  <text x="470.0" y="305.0" text-anchor="middle" class="node-title">ingest_ods pipeline</text>
  <text x="470.0" y="327.0" text-anchor="middle" class="node-sub">BatchOrchestrator
id-keyset 读取</text>
  <ellipse cx="730.0" cy="118.75" rx="55.0" ry="8.75" fill="#dbeafe" stroke="#2563eb" stroke-width="2.2"/>
  <rect x="620.0" y="118.75" width="220.0" height="52.5" fill="#dbeafe" stroke="#2563eb" stroke-width="2.2"/>
  <ellipse cx="730.0" cy="171.25" rx="55.0" ry="8.75" fill="#dbeafe" stroke="#2563eb" stroke-width="2.2"/>
  <ellipse cx="730.0" cy="136.6" rx="55.0" ry="8.75" fill="none" stroke="#2563eb" stroke-opacity="0.45" stroke-width="1.2"/>
  <ellipse cx="730.0" cy="152.0" rx="55.0" ry="8.75" fill="none" stroke="#2563eb" stroke-opacity="0.25" stroke-width="1.2"/>
  <text x="730.0" y="139.0" text-anchor="middle" class="node-title">PostgreSQL</text>
  <text x="730.0" y="163.0" text-anchor="middle" class="node-sub">profile / staging / changelog</text>
  <ellipse cx="730.0" cy="228.75" rx="55.0" ry="8.75" fill="#dbeafe" stroke="#2563eb" stroke-width="2.2"/>
  <rect x="620.0" y="228.75" width="220.0" height="52.5" fill="#dbeafe" stroke="#2563eb" stroke-width="2.2"/>
  <ellipse cx="730.0" cy="281.25" rx="55.0" ry="8.75" fill="#dbeafe" stroke="#2563eb" stroke-width="2.2"/>
  <ellipse cx="730.0" cy="246.6" rx="55.0" ry="8.75" fill="none" stroke="#2563eb" stroke-opacity="0.45" stroke-width="1.2"/>
  <ellipse cx="730.0" cy="262.0" rx="55.0" ry="8.75" fill="none" stroke="#2563eb" stroke-opacity="0.25" stroke-width="1.2"/>
  <text x="730.0" y="249.0" text-anchor="middle" class="node-title">Neo4j</text>
  <text x="730.0" y="273.0" text-anchor="middle" class="node-sub">节点 + 关系</text>
  <ellipse cx="730.0" cy="338.75" rx="55.0" ry="8.75" fill="#dbeafe" stroke="#2563eb" stroke-width="2.2"/>
  <rect x="620.0" y="338.75" width="220.0" height="52.5" fill="#dbeafe" stroke="#2563eb" stroke-width="2.2"/>
  <ellipse cx="730.0" cy="391.25" rx="55.0" ry="8.75" fill="#dbeafe" stroke="#2563eb" stroke-width="2.2"/>
  <ellipse cx="730.0" cy="356.6" rx="55.0" ry="8.75" fill="none" stroke="#2563eb" stroke-opacity="0.45" stroke-width="1.2"/>
  <ellipse cx="730.0" cy="372.0" rx="55.0" ry="8.75" fill="none" stroke="#2563eb" stroke-opacity="0.25" stroke-width="1.2"/>
  <text x="730.0" y="359.0" text-anchor="middle" class="node-title">Elasticsearch</text>
  <text x="730.0" y="383.0" text-anchor="middle" class="node-sub">检索索引 + 向量</text>
  <rect x="620.0" y="440.0" width="220.0" height="70.0" rx="10.0" fill="#fef9c3" stroke="#ca8a04" stroke-width="1.8" filter="url(#shadowSoft)"/>
  <text x="730.0" y="475.0" text-anchor="middle" class="node-title">profile_*_relation_service</text>
  <text x="730.0" y="497.0" text-anchor="middle" class="node-sub">读 Neo4j (by PK)</text>
  <rect x="920.0" y="300.0" width="220.0" height="90.0" rx="10.0" fill="#e0e7ff" stroke="#4f46e5" stroke-width="1.8" filter="url(#shadowSoft)"/>
  <text x="1030.0" y="345.0" text-anchor="middle" class="node-title">前端 RelationGraph</text>
  <text x="1030.0" y="367.0" text-anchor="middle" class="node-sub">React + G6
跨画像跳转</text>
  <rect x="187.0" y="211.0" width="210" height="20" rx="6" fill="#ffffff" opacity="0.94"/>
  <text x="292.0" y="225.0" text-anchor="middle" class="arrow-label">WAN 灌数 (20% 抽样+company封顶10M)</text>
  <rect x="216.0" y="145.0" width="98" height="20" rx="6" fill="#ffffff" opacity="0.94"/>
  <text x="265.0" y="159.0" text-anchor="middle" class="arrow-label">INSERT ODS 行</text>
  <rect x="413.5" y="211.0" width="77" height="20" rx="6" fill="#ffffff" opacity="0.94"/>
  <text x="452.0" y="225.0" text-anchor="middle" class="arrow-label">id-keyset</text>
  <rect x="544.0" y="190.0" width="112" height="20" rx="6" fill="#ffffff" opacity="0.94"/>
  <text x="600.0" y="204.0" text-anchor="middle" class="arrow-label">profile upsert</text>
  <rect x="544.0" y="266.0" width="112" height="20" rx="6" fill="#ffffff" opacity="0.94"/>
  <text x="600.0" y="280.0" text-anchor="middle" class="arrow-label">RelationTriple</text>
  <rect x="575.5" y="321.0" width="49" height="20" rx="6" fill="#ffffff" opacity="0.94"/>
  <text x="600.0" y="335.0" text-anchor="middle" class="arrow-label">embed</text>
  <rect x="857.5" y="351.0" width="49" height="20" rx="6" fill="#ffffff" opacity="0.94"/>
  <text x="882.0" y="365.0" text-anchor="middle" class="arrow-label">by PK</text>
  <rect x="841.5" y="401.0" width="77" height="20" rx="6" fill="#ffffff" opacity="0.94"/>
  <text x="880.0" y="415.0" text-anchor="middle" class="arrow-label">REST 关系数据</text>
  <line x1="42.0" y1="500.0" x2="72.0" y2="500.0" stroke="#f97316" stroke-width="2.4" marker-end="url(#arrowE)"/>
  <text x="82.0" y="504.0" class="legend">灌数 (WAN)</text>
  <line x1="42.0" y1="522.0" x2="72.0" y2="522.0" stroke="#2563eb" stroke-width="2.4" marker-end="url(#arrowC)"/>
  <text x="82.0" y="526.0" class="legend">读取</text>
  <line x1="42.0" y1="544.0" x2="72.0" y2="544.0" stroke="#10b981" stroke-width="2.4" marker-end="url(#arrowB)"/>
  <text x="82.0" y="548.0" class="legend">写入</text>
</svg>