<svg xmlns="http://www.w3.org/2000/svg" viewBox="0 0 1200 1722" width="1200" height="1722" font-family="'Microsoft YaHei','SimHei','PingFang SC',sans-serif">
<defs>
  <marker id="none"/>
</defs>
<rect width="1200" height="1722" fill="#ffffff"/>
<text x="600.0" y="40" text-anchor="middle" font-size="26" font-weight="700" fill="#0f172a">关系抽取全覆盖（31 RelationType）</text>
<text x="600.0" y="64" text-anchor="middle" font-size="13" fill="#64748b">结构化规则覆盖 5 种字段隐含关系 · map_predicate 覆盖全 31 含卫星对 · 未映射谓词进 relation_staging</text>
<text x="60" y="114" font-size="12" fill="#475569">行 = 31 RelationType（按 主体→客体 分组） · 列 = 三路覆盖来源</text>
<rect x="60" y="164" width="1040" height="44" fill="#1e293b"/>
<text x="330.0" y="191.0" text-anchor="middle" font-size="14" font-weight="700" fill="#f1f5f9">RelationType（按主体→客体分组）</text>
<text x="720.0" y="191.0" text-anchor="middle" font-size="14" font-weight="700" fill="#f1f5f9">结构化规则</text>
<text x="900.0" y="191.0" text-anchor="middle" font-size="14" font-weight="700" fill="#f1f5f9">map_predicate (LLM)</text>
<text x="1080.0" y="191.0" text-anchor="middle" font-size="14" font-weight="700" fill="#f1f5f9">staging (未映射) </text>
<rect x="60" y="222" width="1040" height="26" rx="4" fill="#ede9fe" stroke="#94a3b8" stroke-width="0.8"/>
<text x="74" y="240" font-size="13" font-weight="700" fill="#334155">机构-机构</text>
<rect x="60" y="248" width="1040" height="38" fill="#ffffff" stroke="#e2e8f0" stroke-width="0.8"/>
<text x="74" y="272.0" font-size="13" fill="#0f172a">ORG-PARENT-ORG (母公司)</text>
<circle cx="720.0" cy="267.0" r="4" fill="none" stroke="#cbd5e1" stroke-width="1.4"/>
<circle cx="900.0" cy="267.0" r="11" fill="#16a34a" opacity="0.16"/>
<path d="M 895.0 267.0 L 898.5 271.0 L 906.0 262.0" fill="none" stroke="#15803d" stroke-width="2.6" stroke-linecap="round" stroke-linejoin="round"/>
<circle cx="1080.0" cy="267.0" r="4" fill="none" stroke="#cbd5e1" stroke-width="1.4"/>
<rect x="60" y="286" width="1040" height="38" fill="#ffffff" stroke="#e2e8f0" stroke-width="0.8"/>
<text x="74" y="310.0" font-size="13" fill="#0f172a">ORG-SUBSIDIARY-ORG (子公司)</text>
<circle cx="720.0" cy="305.0" r="4" fill="none" stroke="#cbd5e1" stroke-width="1.4"/>
<circle cx="900.0" cy="305.0" r="11" fill="#16a34a" opacity="0.16"/>
<path d="M 895.0 305.0 L 898.5 309.0 L 906.0 300.0" fill="none" stroke="#15803d" stroke-width="2.6" stroke-linecap="round" stroke-linejoin="round"/>
<circle cx="1080.0" cy="305.0" r="4" fill="none" stroke="#cbd5e1" stroke-width="1.4"/>
<rect x="60" y="324" width="1040" height="38" fill="#ffffff" stroke="#e2e8f0" stroke-width="0.8"/>
<text x="74" y="348.0" font-size="13" fill="#0f172a">ORG-PARTNER-ORG (合作机构)</text>
<circle cx="720.0" cy="343.0" r="4" fill="none" stroke="#cbd5e1" stroke-width="1.4"/>
<circle cx="900.0" cy="343.0" r="11" fill="#16a34a" opacity="0.16"/>
<path d="M 895.0 343.0 L 898.5 347.0 L 906.0 338.0" fill="none" stroke="#15803d" stroke-width="2.6" stroke-linecap="round" stroke-linejoin="round"/>
<circle cx="1080.0" cy="343.0" r="11" fill="#16a34a" opacity="0.16"/>
<path d="M 1075.0 343.0 L 1078.5 347.0 L 1086.0 338.0" fill="none" stroke="#15803d" stroke-width="2.6" stroke-linecap="round" stroke-linejoin="round"/>
<rect x="60" y="362" width="1040" height="38" fill="#ffffff" stroke="#e2e8f0" stroke-width="0.8"/>
<text x="74" y="386.0" font-size="13" fill="#0f172a">ORG-INVEST-ORG (投资)</text>
<circle cx="720.0" cy="381.0" r="4" fill="none" stroke="#cbd5e1" stroke-width="1.4"/>
<circle cx="900.0" cy="381.0" r="11" fill="#16a34a" opacity="0.16"/>
<path d="M 895.0 381.0 L 898.5 385.0 L 906.0 376.0" fill="none" stroke="#15803d" stroke-width="2.6" stroke-linecap="round" stroke-linejoin="round"/>
<circle cx="1080.0" cy="381.0" r="4" fill="none" stroke="#cbd5e1" stroke-width="1.4"/>
<rect x="60" y="400" width="1040" height="38" fill="#ffffff" stroke="#e2e8f0" stroke-width="0.8"/>
<text x="74" y="424.0" font-size="13" fill="#0f172a">ORG-COMPETITOR-ORG (竞争)</text>
<circle cx="720.0" cy="419.0" r="4" fill="none" stroke="#cbd5e1" stroke-width="1.4"/>
<circle cx="900.0" cy="419.0" r="11" fill="#16a34a" opacity="0.16"/>
<path d="M 895.0 419.0 L 898.5 423.0 L 906.0 414.0" fill="none" stroke="#15803d" stroke-width="2.6" stroke-linecap="round" stroke-linejoin="round"/>
<circle cx="1080.0" cy="419.0" r="11" fill="#16a34a" opacity="0.16"/>
<path d="M 1075.0 419.0 L 1078.5 423.0 L 1086.0 414.0" fill="none" stroke="#15803d" stroke-width="2.6" stroke-linecap="round" stroke-linejoin="round"/>
<rect x="60" y="452" width="1040" height="26" rx="4" fill="#dbeafe" stroke="#94a3b8" stroke-width="0.8"/>
<text x="74" y="470" font-size="13" font-weight="700" fill="#334155">机构-项目</text>
<rect x="60" y="478" width="1040" height="38" fill="#ffffff" stroke="#e2e8f0" stroke-width="0.8"/>
<text x="74" y="502.0" font-size="13" fill="#0f172a">ORG-FUND-PROJECT (资助)</text>
<circle cx="720.0" cy="497.0" r="4" fill="none" stroke="#cbd5e1" stroke-width="1.4"/>
<circle cx="900.0" cy="497.0" r="11" fill="#16a34a" opacity="0.16"/>
<path d="M 895.0 497.0 L 898.5 501.0 L 906.0 492.0" fill="none" stroke="#15803d" stroke-width="2.6" stroke-linecap="round" stroke-linejoin="round"/>
<circle cx="1080.0" cy="497.0" r="4" fill="none" stroke="#cbd5e1" stroke-width="1.4"/>
<rect x="60" y="516" width="1040" height="38" fill="#ffffff" stroke="#e2e8f0" stroke-width="0.8"/>
<text x="74" y="540.0" font-size="13" fill="#0f172a">ORG-UNDERTAKE-PROJECT (承担)</text>
<circle cx="720.0" cy="535.0" r="4" fill="none" stroke="#cbd5e1" stroke-width="1.4"/>
<circle cx="900.0" cy="535.0" r="11" fill="#16a34a" opacity="0.16"/>
<path d="M 895.0 535.0 L 898.5 539.0 L 906.0 530.0" fill="none" stroke="#15803d" stroke-width="2.6" stroke-linecap="round" stroke-linejoin="round"/>
<circle cx="1080.0" cy="535.0" r="4" fill="none" stroke="#cbd5e1" stroke-width="1.4"/>
<rect x="60" y="554" width="1040" height="38" fill="#ffffff" stroke="#e2e8f0" stroke-width="0.8"/>
<text x="74" y="578.0" font-size="13" fill="#0f172a">PROJECT-MAIN-ORG (主持单位)</text>
<circle cx="720.0" cy="573.0" r="11" fill="#16a34a" opacity="0.16"/>
<path d="M 715.0 573.0 L 718.5 577.0 L 726.0 568.0" fill="none" stroke="#15803d" stroke-width="2.6" stroke-linecap="round" stroke-linejoin="round"/>
<circle cx="900.0" cy="573.0" r="11" fill="#16a34a" opacity="0.16"/>
<path d="M 895.0 573.0 L 898.5 577.0 L 906.0 568.0" fill="none" stroke="#15803d" stroke-width="2.6" stroke-linecap="round" stroke-linejoin="round"/>
<circle cx="1080.0" cy="573.0" r="4" fill="none" stroke="#cbd5e1" stroke-width="1.4"/>
<rect x="60" y="606" width="1040" height="26" rx="4" fill="#dcfce7" stroke="#94a3b8" stroke-width="0.8"/>
<text x="74" y="624" font-size="13" font-weight="700" fill="#334155">机构-人员</text>
<rect x="60" y="632" width="1040" height="38" fill="#ffffff" stroke="#e2e8f0" stroke-width="0.8"/>
<text x="74" y="656.0" font-size="13" fill="#0f172a">ORG-EMPLOY (雇佣)</text>
<circle cx="720.0" cy="651.0" r="11" fill="#16a34a" opacity="0.16"/>
<path d="M 715.0 651.0 L 718.5 655.0 L 726.0 646.0" fill="none" stroke="#15803d" stroke-width="2.6" stroke-linecap="round" stroke-linejoin="round"/>
<circle cx="900.0" cy="651.0" r="11" fill="#16a34a" opacity="0.16"/>
<path d="M 895.0 651.0 L 898.5 655.0 L 906.0 646.0" fill="none" stroke="#15803d" stroke-width="2.6" stroke-linecap="round" stroke-linejoin="round"/>
<circle cx="1080.0" cy="651.0" r="4" fill="none" stroke="#cbd5e1" stroke-width="1.4"/>
<rect x="60" y="670" width="1040" height="38" fill="#ffffff" stroke="#e2e8f0" stroke-width="0.8"/>
<text x="74" y="694.0" font-size="13" fill="#0f172a">PERSON-AFFILIATED-ORG (所属机构)</text>
<circle cx="720.0" cy="689.0" r="11" fill="#16a34a" opacity="0.16"/>
<path d="M 715.0 689.0 L 718.5 693.0 L 726.0 684.0" fill="none" stroke="#15803d" stroke-width="2.6" stroke-linecap="round" stroke-linejoin="round"/>
<circle cx="900.0" cy="689.0" r="11" fill="#16a34a" opacity="0.16"/>
<path d="M 895.0 689.0 L 898.5 693.0 L 906.0 684.0" fill="none" stroke="#15803d" stroke-width="2.6" stroke-linecap="round" stroke-linejoin="round"/>
<circle cx="1080.0" cy="689.0" r="4" fill="none" stroke="#cbd5e1" stroke-width="1.4"/>
<rect x="60" y="708" width="1040" height="38" fill="#ffffff" stroke="#e2e8f0" stroke-width="0.8"/>
<text x="74" y="732.0" font-size="13" fill="#0f172a">PERSON-LEAD-ORG (负责人)</text>
<circle cx="720.0" cy="727.0" r="4" fill="none" stroke="#cbd5e1" stroke-width="1.4"/>
<circle cx="900.0" cy="727.0" r="11" fill="#16a34a" opacity="0.16"/>
<path d="M 895.0 727.0 L 898.5 731.0 L 906.0 722.0" fill="none" stroke="#15803d" stroke-width="2.6" stroke-linecap="round" stroke-linejoin="round"/>
<circle cx="1080.0" cy="727.0" r="4" fill="none" stroke="#cbd5e1" stroke-width="1.4"/>
<rect x="60" y="760" width="1040" height="26" rx="4" fill="#fef9c3" stroke="#94a3b8" stroke-width="0.8"/>
<text x="74" y="778" font-size="13" font-weight="700" fill="#334155">机构-技术</text>
<rect x="60" y="786" width="1040" height="38" fill="#ffffff" stroke="#e2e8f0" stroke-width="0.8"/>
<text x="74" y="810.0" font-size="13" fill="#0f172a">ORG-INVOLVE-TECH (涉及技术)</text>
<circle cx="720.0" cy="805.0" r="11" fill="#16a34a" opacity="0.16"/>
<path d="M 715.0 805.0 L 718.5 809.0 L 726.0 800.0" fill="none" stroke="#15803d" stroke-width="2.6" stroke-linecap="round" stroke-linejoin="round"/>
<circle cx="900.0" cy="805.0" r="11" fill="#16a34a" opacity="0.16"/>
<path d="M 895.0 805.0 L 898.5 809.0 L 906.0 800.0" fill="none" stroke="#15803d" stroke-width="2.6" stroke-linecap="round" stroke-linejoin="round"/>
<circle cx="1080.0" cy="805.0" r="4" fill="none" stroke="#cbd5e1" stroke-width="1.4"/>
<rect x="60" y="824" width="1040" height="38" fill="#ffffff" stroke="#e2e8f0" stroke-width="0.8"/>
<text x="74" y="848.0" font-size="13" fill="#0f172a">ORG-DEVELOP-TECH (研发)</text>
<circle cx="720.0" cy="843.0" r="4" fill="none" stroke="#cbd5e1" stroke-width="1.4"/>
<circle cx="900.0" cy="843.0" r="11" fill="#16a34a" opacity="0.16"/>
<path d="M 895.0 843.0 L 898.5 847.0 L 906.0 838.0" fill="none" stroke="#15803d" stroke-width="2.6" stroke-linecap="round" stroke-linejoin="round"/>
<circle cx="1080.0" cy="843.0" r="4" fill="none" stroke="#cbd5e1" stroke-width="1.4"/>
<rect x="60" y="862" width="1040" height="38" fill="#ffffff" stroke="#e2e8f0" stroke-width="0.8"/>
<text x="74" y="886.0" font-size="13" fill="#0f172a">ORG-APPLY-TECH (应用)</text>
<circle cx="720.0" cy="881.0" r="4" fill="none" stroke="#cbd5e1" stroke-width="1.4"/>
<circle cx="900.0" cy="881.0" r="11" fill="#16a34a" opacity="0.16"/>
<path d="M 895.0 881.0 L 898.5 885.0 L 906.0 876.0" fill="none" stroke="#15803d" stroke-width="2.6" stroke-linecap="round" stroke-linejoin="round"/>
<circle cx="1080.0" cy="881.0" r="4" fill="none" stroke="#cbd5e1" stroke-width="1.4"/>
<rect x="60" y="914" width="1040" height="26" rx="4" fill="#ffedd5" stroke="#94a3b8" stroke-width="0.8"/>
<text x="74" y="932" font-size="13" font-weight="700" fill="#334155">机构-卫星</text>
<rect x="60" y="940" width="1040" height="38" fill="#ffffff" stroke="#e2e8f0" stroke-width="0.8"/>
<text x="74" y="964.0" font-size="13" fill="#0f172a">ORG-PUBLISH-STRATEGY (发布战略)</text>
<circle cx="720.0" cy="959.0" r="4" fill="none" stroke="#cbd5e1" stroke-width="1.4"/>
<circle cx="900.0" cy="959.0" r="11" fill="#16a34a" opacity="0.16"/>
<path d="M 895.0 959.0 L 898.5 963.0 L 906.0 954.0" fill="none" stroke="#15803d" stroke-width="2.6" stroke-linecap="round" stroke-linejoin="round"/>
<circle cx="1080.0" cy="959.0" r="11" fill="#16a34a" opacity="0.16"/>
<path d="M 1075.0 959.0 L 1078.5 963.0 L 1086.0 954.0" fill="none" stroke="#15803d" stroke-width="2.6" stroke-linecap="round" stroke-linejoin="round"/>
<rect x="60" y="978" width="1040" height="38" fill="#ffffff" stroke="#e2e8f0" stroke-width="0.8"/>
<text x="74" y="1002.0" font-size="13" fill="#0f172a">ORG-HOST-EVENT (主办事件)</text>
<circle cx="720.0" cy="997.0" r="4" fill="none" stroke="#cbd5e1" stroke-width="1.4"/>
<circle cx="900.0" cy="997.0" r="11" fill="#16a34a" opacity="0.16"/>
<path d="M 895.0 997.0 L 898.5 1001.0 L 906.0 992.0" fill="none" stroke="#15803d" stroke-width="2.6" stroke-linecap="round" stroke-linejoin="round"/>
<circle cx="1080.0" cy="997.0" r="11" fill="#16a34a" opacity="0.16"/>
<path d="M 1075.0 997.0 L 1078.5 1001.0 L 1086.0 992.0" fill="none" stroke="#15803d" stroke-width="2.6" stroke-linecap="round" stroke-linejoin="round"/>
<rect x="60" y="1016" width="1040" height="38" fill="#ffffff" stroke="#e2e8f0" stroke-width="0.8"/>
<text x="74" y="1040.0" font-size="13" fill="#0f172a">ORG-OWN-ENTERPRISE (关联企业)</text>
<circle cx="720.0" cy="1035.0" r="4" fill="none" stroke="#cbd5e1" stroke-width="1.4"/>
<circle cx="900.0" cy="1035.0" r="11" fill="#16a34a" opacity="0.16"/>
<path d="M 895.0 1035.0 L 898.5 1039.0 L 906.0 1030.0" fill="none" stroke="#15803d" stroke-width="2.6" stroke-linecap="round" stroke-linejoin="round"/>
<circle cx="1080.0" cy="1035.0" r="4" fill="none" stroke="#cbd5e1" stroke-width="1.4"/>
<rect x="60" y="1054" width="1040" height="38" fill="#ffffff" stroke="#e2e8f0" stroke-width="0.8"/>
<text x="74" y="1078.0" font-size="13" fill="#0f172a">ORG-SIGN-CONTRACT (签约合同)</text>
<circle cx="720.0" cy="1073.0" r="4" fill="none" stroke="#cbd5e1" stroke-width="1.4"/>
<circle cx="900.0" cy="1073.0" r="11" fill="#16a34a" opacity="0.16"/>
<path d="M 895.0 1073.0 L 898.5 1077.0 L 906.0 1068.0" fill="none" stroke="#15803d" stroke-width="2.6" stroke-linecap="round" stroke-linejoin="round"/>
<circle cx="1080.0" cy="1073.0" r="11" fill="#16a34a" opacity="0.16"/>
<path d="M 1075.0 1073.0 L 1078.5 1077.0 L 1086.0 1068.0" fill="none" stroke="#15803d" stroke-width="2.6" stroke-linecap="round" stroke-linejoin="round"/>
<rect x="60" y="1092" width="1040" height="38" fill="#ffffff" stroke="#e2e8f0" stroke-width="0.8"/>
<text x="74" y="1116.0" font-size="13" fill="#0f172a">ORG-PROVIDE-PACKAGE (提供产品包)</text>
<circle cx="720.0" cy="1111.0" r="4" fill="none" stroke="#cbd5e1" stroke-width="1.4"/>
<circle cx="900.0" cy="1111.0" r="11" fill="#16a34a" opacity="0.16"/>
<path d="M 895.0 1111.0 L 898.5 1115.0 L 906.0 1106.0" fill="none" stroke="#15803d" stroke-width="2.6" stroke-linecap="round" stroke-linejoin="round"/>
<circle cx="1080.0" cy="1111.0" r="11" fill="#16a34a" opacity="0.16"/>
<path d="M 1075.0 1111.0 L 1078.5 1115.0 L 1086.0 1106.0" fill="none" stroke="#15803d" stroke-width="2.6" stroke-linecap="round" stroke-linejoin="round"/>
<rect x="60" y="1144" width="1040" height="26" rx="4" fill="#fce7f3" stroke="#94a3b8" stroke-width="0.8"/>
<text x="74" y="1162" font-size="13" font-weight="700" fill="#334155">项目-其他</text>
<rect x="60" y="1170" width="1040" height="38" fill="#ffffff" stroke="#e2e8f0" stroke-width="0.8"/>
<text x="74" y="1194.0" font-size="13" fill="#0f172a">PROJECT-FUND-PROJECT (项目互资)</text>
<circle cx="720.0" cy="1189.0" r="4" fill="none" stroke="#cbd5e1" stroke-width="1.4"/>
<circle cx="900.0" cy="1189.0" r="11" fill="#16a34a" opacity="0.16"/>
<path d="M 895.0 1189.0 L 898.5 1193.0 L 906.0 1184.0" fill="none" stroke="#15803d" stroke-width="2.6" stroke-linecap="round" stroke-linejoin="round"/>
<circle cx="1080.0" cy="1189.0" r="4" fill="none" stroke="#cbd5e1" stroke-width="1.4"/>
<rect x="60" y="1208" width="1040" height="38" fill="#ffffff" stroke="#e2e8f0" stroke-width="0.8"/>
<text x="74" y="1232.0" font-size="13" fill="#0f172a">PROJECT-MAIN-TECH (核心技术)</text>
<circle cx="720.0" cy="1227.0" r="4" fill="none" stroke="#cbd5e1" stroke-width="1.4"/>
<circle cx="900.0" cy="1227.0" r="11" fill="#16a34a" opacity="0.16"/>
<path d="M 895.0 1227.0 L 898.5 1231.0 L 906.0 1222.0" fill="none" stroke="#15803d" stroke-width="2.6" stroke-linecap="round" stroke-linejoin="round"/>
<circle cx="1080.0" cy="1227.0" r="4" fill="none" stroke="#cbd5e1" stroke-width="1.4"/>
<rect x="60" y="1246" width="1040" height="38" fill="#ffffff" stroke="#e2e8f0" stroke-width="0.8"/>
<text x="74" y="1270.0" font-size="13" fill="#0f172a">PROJECT-CONTRIBUTOR-PERSON (参与人)</text>
<circle cx="720.0" cy="1265.0" r="4" fill="none" stroke="#cbd5e1" stroke-width="1.4"/>
<circle cx="900.0" cy="1265.0" r="11" fill="#16a34a" opacity="0.16"/>
<path d="M 895.0 1265.0 L 898.5 1269.0 L 906.0 1260.0" fill="none" stroke="#15803d" stroke-width="2.6" stroke-linecap="round" stroke-linejoin="round"/>
<circle cx="1080.0" cy="1265.0" r="4" fill="none" stroke="#cbd5e1" stroke-width="1.4"/>
<rect x="60" y="1298" width="1040" height="26" rx="4" fill="#e0e7ff" stroke="#94a3b8" stroke-width="0.8"/>
<text x="74" y="1316" font-size="13" font-weight="700" fill="#334155">人员-其他</text>
<rect x="60" y="1324" width="1040" height="38" fill="#ffffff" stroke="#e2e8f0" stroke-width="0.8"/>
<text x="74" y="1348.0" font-size="13" fill="#0f172a">PERSON-EMPLOY-ORG (就职)</text>
<circle cx="720.0" cy="1343.0" r="4" fill="none" stroke="#cbd5e1" stroke-width="1.4"/>
<circle cx="900.0" cy="1343.0" r="11" fill="#16a34a" opacity="0.16"/>
<path d="M 895.0 1343.0 L 898.5 1347.0 L 906.0 1338.0" fill="none" stroke="#15803d" stroke-width="2.6" stroke-linecap="round" stroke-linejoin="round"/>
<circle cx="1080.0" cy="1343.0" r="4" fill="none" stroke="#cbd5e1" stroke-width="1.4"/>
<rect x="60" y="1362" width="1040" height="38" fill="#ffffff" stroke="#e2e8f0" stroke-width="0.8"/>
<text x="74" y="1386.0" font-size="13" fill="#0f172a">PERSON-MAIN-PROJECT (主持项目)</text>
<circle cx="720.0" cy="1381.0" r="4" fill="none" stroke="#cbd5e1" stroke-width="1.4"/>
<circle cx="900.0" cy="1381.0" r="11" fill="#16a34a" opacity="0.16"/>
<path d="M 895.0 1381.0 L 898.5 1385.0 L 906.0 1376.0" fill="none" stroke="#15803d" stroke-width="2.6" stroke-linecap="round" stroke-linejoin="round"/>
<circle cx="1080.0" cy="1381.0" r="4" fill="none" stroke="#cbd5e1" stroke-width="1.4"/>
<rect x="60" y="1400" width="1040" height="38" fill="#ffffff" stroke="#e2e8f0" stroke-width="0.8"/>
<text x="74" y="1424.0" font-size="13" fill="#0f172a">PERSON-EXPERT-TECH (专长技术)</text>
<circle cx="720.0" cy="1419.0" r="4" fill="none" stroke="#cbd5e1" stroke-width="1.4"/>
<circle cx="900.0" cy="1419.0" r="11" fill="#16a34a" opacity="0.16"/>
<path d="M 895.0 1419.0 L 898.5 1423.0 L 906.0 1414.0" fill="none" stroke="#15803d" stroke-width="2.6" stroke-linecap="round" stroke-linejoin="round"/>
<circle cx="1080.0" cy="1419.0" r="4" fill="none" stroke="#cbd5e1" stroke-width="1.4"/>
<rect x="60" y="1452" width="1040" height="26" rx="4" fill="#ccfbf1" stroke="#94a3b8" stroke-width="0.8"/>
<text x="74" y="1470" font-size="13" font-weight="700" fill="#334155">技术-其他</text>
<rect x="60" y="1478" width="1040" height="38" fill="#ffffff" stroke="#e2e8f0" stroke-width="0.8"/>
<text x="74" y="1502.0" font-size="13" fill="#0f172a">TECH-CONTRIBUTOR-PERSON (贡献者)</text>
<circle cx="720.0" cy="1497.0" r="11" fill="#16a34a" opacity="0.16"/>
<path d="M 715.0 1497.0 L 718.5 1501.0 L 726.0 1492.0" fill="none" stroke="#15803d" stroke-width="2.6" stroke-linecap="round" stroke-linejoin="round"/>
<circle cx="900.0" cy="1497.0" r="11" fill="#16a34a" opacity="0.16"/>
<path d="M 895.0 1497.0 L 898.5 1501.0 L 906.0 1492.0" fill="none" stroke="#15803d" stroke-width="2.6" stroke-linecap="round" stroke-linejoin="round"/>
<circle cx="1080.0" cy="1497.0" r="4" fill="none" stroke="#cbd5e1" stroke-width="1.4"/>
<rect x="60" y="1516" width="1040" height="38" fill="#ffffff" stroke="#e2e8f0" stroke-width="0.8"/>
<text x="74" y="1540.0" font-size="13" fill="#0f172a">TECH-CITE-TECH (引用)</text>
<circle cx="720.0" cy="1535.0" r="4" fill="none" stroke="#cbd5e1" stroke-width="1.4"/>
<circle cx="900.0" cy="1535.0" r="11" fill="#16a34a" opacity="0.16"/>
<path d="M 895.0 1535.0 L 898.5 1539.0 L 906.0 1530.0" fill="none" stroke="#15803d" stroke-width="2.6" stroke-linecap="round" stroke-linejoin="round"/>
<circle cx="1080.0" cy="1535.0" r="4" fill="none" stroke="#cbd5e1" stroke-width="1.4"/>
<rect x="60" y="1554" width="1040" height="38" fill="#ffffff" stroke="#e2e8f0" stroke-width="0.8"/>
<text x="74" y="1578.0" font-size="13" fill="#0f172a">TECH-EVOLVE-TECH (演进)</text>
<circle cx="720.0" cy="1573.0" r="4" fill="none" stroke="#cbd5e1" stroke-width="1.4"/>
<circle cx="900.0" cy="1573.0" r="11" fill="#16a34a" opacity="0.16"/>
<path d="M 895.0 1573.0 L 898.5 1577.0 L 906.0 1568.0" fill="none" stroke="#15803d" stroke-width="2.6" stroke-linecap="round" stroke-linejoin="round"/>
<circle cx="1080.0" cy="1573.0" r="4" fill="none" stroke="#cbd5e1" stroke-width="1.4"/>
<rect x="60" y="1592" width="1040" height="38" fill="#ffffff" stroke="#e2e8f0" stroke-width="0.8"/>
<text x="74" y="1616.0" font-size="13" fill="#0f172a">TECH-PIONEER-ORG (先驱机构)</text>
<circle cx="720.0" cy="1611.0" r="4" fill="none" stroke="#cbd5e1" stroke-width="1.4"/>
<circle cx="900.0" cy="1611.0" r="11" fill="#16a34a" opacity="0.16"/>
<path d="M 895.0 1611.0 L 898.5 1615.0 L 906.0 1606.0" fill="none" stroke="#15803d" stroke-width="2.6" stroke-linecap="round" stroke-linejoin="round"/>
<circle cx="1080.0" cy="1611.0" r="4" fill="none" stroke="#cbd5e1" stroke-width="1.4"/>
<rect x="60" y="1630" width="1040" height="38" fill="#ffffff" stroke="#e2e8f0" stroke-width="0.8"/>
<text x="74" y="1654.0" font-size="13" fill="#0f172a">TECH-USE-PROJECT (应用项目)</text>
<circle cx="720.0" cy="1649.0" r="4" fill="none" stroke="#cbd5e1" stroke-width="1.4"/>
<circle cx="900.0" cy="1649.0" r="11" fill="#16a34a" opacity="0.16"/>
<path d="M 895.0 1649.0 L 898.5 1653.0 L 906.0 1644.0" fill="none" stroke="#15803d" stroke-width="2.6" stroke-linecap="round" stroke-linejoin="round"/>
<circle cx="1080.0" cy="1649.0" r="4" fill="none" stroke="#cbd5e1" stroke-width="1.4"/>
<rect x="60" y="1668" width="1040" height="38" fill="#ffffff" stroke="#e2e8f0" stroke-width="0.8"/>
<text x="74" y="1692.0" font-size="13" fill="#0f172a">TECH-DEPEND-TECH (依赖)</text>
<circle cx="720.0" cy="1687.0" r="4" fill="none" stroke="#cbd5e1" stroke-width="1.4"/>
<circle cx="900.0" cy="1687.0" r="11" fill="#16a34a" opacity="0.16"/>
<path d="M 895.0 1687.0 L 898.5 1691.0 L 906.0 1682.0" fill="none" stroke="#15803d" stroke-width="2.6" stroke-linecap="round" stroke-linejoin="round"/>
<circle cx="1080.0" cy="1687.0" r="4" fill="none" stroke="#cbd5e1" stroke-width="1.4"/>
<text x="60" y="1724" font-size="11" fill="#64748b">注：结构化规则覆盖 5 字段隐含(ORG-EMPLOY / PERSON-AFFILIATED-ORG / ORG-INVOLVE-TECH / TECH-CONTRIBUTOR / PROJECT-MAIN-ORG) · staging = 未映射 LLM 谓词待补（人工/后续 map）</text>
<text x="60" y="1742" font-size="11" fill="#64748b">map_predicate 默认覆盖全 31 行（✓） · RelationType 命名以实现期 shared/schemas/relations.py 枚举为准（方向性占位）</text>
</svg>