<svg xmlns="http://www.w3.org/2000/svg" viewBox="0 0 960 940" width="960" height="940">
  <defs>
    <marker id="arrowA" markerWidth="10" markerHeight="7" refX="9" refY="3.5" orient="auto">
      <polygon points="0 0, 10 3.5, 0 7" fill="#7c3aed"/>
    </marker>
    <marker id="arrowB" markerWidth="10" markerHeight="7" refX="9" refY="3.5" orient="auto">
      <polygon points="0 0, 10 3.5, 0 7" fill="#10b981"/>
    </marker>
    <marker id="arrowC" markerWidth="10" markerHeight="7" refX="9" refY="3.5" orient="auto">
      <polygon points="0 0, 10 3.5, 0 7" fill="#2563eb"/>
    </marker>
    <marker id="arrowE" markerWidth="10" markerHeight="7" refX="9" refY="3.5" orient="auto">
      <polygon points="0 0, 10 3.5, 0 7" fill="#f97316"/>
    </marker>
    <marker id="arrowF" markerWidth="10" markerHeight="7" refX="9" refY="3.5" orient="auto">
      <polygon points="0 0, 10 3.5, 0 7" fill="#7c3aed"/>
    </marker>
    <marker id="arrowG" markerWidth="10" markerHeight="7" refX="9" refY="3.5" orient="auto">
      <polygon points="0 0, 10 3.5, 0 7" fill="#ef4444"/>
    </marker>
    <marker id="arrowH" markerWidth="10" markerHeight="7" refX="9" refY="3.5" orient="auto">
      <polygon points="0 0, 10 3.5, 0 7" fill="#6b7280"/>
    </marker>
    <filter id="shadowSoft" x="-20%" y="-20%" width="140%" height="160%">
      <feDropShadow dx="0" dy="3" stdDeviation="6" flood-color="#0f172a" flood-opacity="0.12"/>
    </filter>
    <filter id="shadowGlass" x="-20%" y="-20%" width="140%" height="160%">
      <feDropShadow dx="0" dy="10" stdDeviation="16" flood-color="#020617" flood-opacity="0.28"/>
    </filter>
    <style>
    text { font-family: 'Microsoft YaHei','SimHei','PingFang SC',sans-serif; }
    .title { font-size: 30px; font-weight: 700; fill: #111827; }
    .subtitle { font-size: 14px; font-weight: 500; fill: #6b7280; }
    .section { font-size: 13px; font-weight: 700; fill: #2563eb; letter-spacing: 1.4px; }
    .section-sub { font-size: 12px; font-weight: 500; fill: #94a3b8; }
    .node-title { font-size: 18px; font-weight: 700; fill: #111827; }
    .node-sub { font-size: 12px; font-weight: 500; fill: #6b7280; }
    .node-type { font-size: 12px; font-weight: 700; fill: #9ca3af; letter-spacing: 0.08em; }
    .arrow-label { font-size: 12px; font-weight: 600; fill: #6b7280; }
    .legend { font-size: 12px; font-weight: 500; fill: #6b7280; }
    .footnote { font-size: 12px; font-weight: 500; fill: #94a3b8; }
    </style>
  </defs>
  <rect width="960.0" height="940.0" fill="#ffffff"/>
  <text x="480.0" y="56" text-anchor="middle" class="title">ODS 抽取端到端流程</text>
  <text x="480.0" y="82" text-anchor="middle" class="subtitle">per-table id-keyset · watermark 原子提交 · 单实体失败不杀批</text>
  <rect x="30.0" y="90.0" width="900.0" height="90.0" rx="16.0" fill="#f8fafc" stroke="#94a3b8" stroke-width="1.4" stroke-dasharray="6 4"/>
  <text x="48.0" y="114.0" class="section">DORIS 数据源</text>
  <rect x="30.0" y="200.0" width="900.0" height="620.0" rx="16.0" fill="#f0fdf4" stroke="#10b981" stroke-width="1.4" stroke-dasharray="6 4"/>
  <text x="48.0" y="224.0" class="section">处理主循环 (PER BATCH)</text>
  <rect x="30.0" y="840.0" width="900.0" height="80.0" rx="16.0" fill="#eff6ff" stroke="#2563eb" stroke-width="1.4" stroke-dasharray="6 4"/>
  <text x="48.0" y="864.0" class="section">存储/恢复</text>
  <path d="M 480.0,165.0 L 480.0,215.0" fill="none" stroke="#f97316" stroke-width="2.4" marker-end="url(#arrowE)"/>
  <path d="M 560.0,255.0 L 680.0,255.0" fill="none" stroke="#ef4444" stroke-width="2.4" marker-end="url(#arrowG)"/>
  <path d="M 480.0,295.0 L 480.0,330.0" fill="none" stroke="#f97316" stroke-width="2.4" marker-end="url(#arrowE)"/>
  <path d="M 480.0,410.0 L 480.0,445.0" fill="none" stroke="#f97316" stroke-width="2.4" marker-end="url(#arrowE)"/>
  <path d="M 560.0,485.0 L 680.0,485.0" fill="none" stroke="#ef4444" stroke-width="2.4" marker-end="url(#arrowG)"/>
  <path d="M 480.0,525.0 L 480.0,560.0" fill="none" stroke="#f97316" stroke-width="2.4" marker-end="url(#arrowE)"/>
  <path d="M 480.0,640.0 L 480.0,670.0" fill="none" stroke="#f97316" stroke-width="2.4" marker-end="url(#arrowE)"/>
  <path d="M 480.0,740.0 L 490.0,765.0" fill="none" stroke="#f97316" stroke-width="2.4" marker-end="url(#arrowE)"/>
  <path d="M 490.0,855.0 L 370.0,860.0" fill="none" stroke="#10b981" stroke-width="2.4" marker-end="url(#arrowB)"/>
  <path d="M 490.0,885.0 L 540.0,885.0" fill="none" stroke="#10b981" stroke-width="2.4" marker-end="url(#arrowB)"/>
  <path d="M 660.0,860.0 L 820.0,885.0 L 880.0,885.0 L 880.0,370.0 L 640.0,370.0 L 480.0,410.0" fill="none" stroke="#ef4444" stroke-width="2.4" marker-end="url(#arrowG)"/>
  <rect x="380.0" y="115.0" width="200.0" height="50.0" rx="10.0" fill="#e0e7ff" stroke="#4f46e5" stroke-width="2.0" filter="url(#shadowSoft)"/>
  <rect x="380.0" y="115.0" width="200.0" height="18" rx="10.0" fill="#1f2937" opacity="0.95"/>
  <circle cx="396.0" cy="124.0" r="4" fill="#ef4444"/>
  <circle cx="410.0" cy="124.0" r="4" fill="#f59e0b"/>
  <circle cx="424.0" cy="124.0" r="4" fill="#10b981"/>
  <text x="398.0" y="159.0" font-size="28" font-weight="700" fill="#10b981">$</text>
  <text x="418.0" y="159.0" font-size="22" font-weight="500" fill="#6b7280">_</text>
  <text x="480.0" y="151.0" text-anchor="middle" class="node-title">Doris 表/附件 (per table in table_set)</text>
  <path d="M 422.0 215.0 L 538.0 215.0 L 560.0 255.0 L 538.0 295.0 L 422.0 295.0 L 400.0 255.0 Z" fill="#fef9c3" stroke="#ca8a04" stroke-width="2.0" filter="url(#shadowSoft)"/>
  <text x="480.0" y="233.0" text-anchor="middle" class="node-type">判断</text>
  <text x="480.0" y="261.0" text-anchor="middle" class="node-title">unmapped table?</text>
  <rect x="680.0" y="225.0" width="180.0" height="60.0" rx="10.0" fill="#fee2e2" stroke="#dc2626" stroke-width="1.8" filter="url(#shadowSoft)"/>
  <text x="770.0" y="255.0" text-anchor="middle" class="node-title">skip + log</text>
  <text x="770.0" y="277.0" text-anchor="middle" class="node-sub">get_mapping None</text>
  <rect x="320.0" y="330.0" width="320.0" height="80.0" rx="10.0" fill="#dcfce7" stroke="#16a34a" stroke-width="1.8" filter="url(#shadowSoft)"/>
  <text x="480.0" y="370.0" text-anchor="middle" class="node-title">Extract (id-keyset)</text>
  <text x="480.0" y="392.0" text-anchor="middle" class="node-sub">WHERE id&gt;last_id:{table} ORDER BY id LIMIT → staging dict</text>
  <path d="M 422.0 445.0 L 538.0 445.0 L 560.0 485.0 L 538.0 525.0 L 422.0 525.0 L 400.0 485.0 Z" fill="#fef9c3" stroke="#ca8a04" stroke-width="2.0" filter="url(#shadowSoft)"/>
  <text x="480.0" y="463.0" text-anchor="middle" class="node-type">判断</text>
  <text x="480.0" y="491.0" text-anchor="middle" class="node-title">empty batch?</text>
  <rect x="680.0" y="455.0" width="180.0" height="60.0" rx="10.0" fill="#e2e8f0" stroke="#64748b" stroke-width="1.8" filter="url(#shadowSoft)"/>
  <text x="770.0" y="485.0" text-anchor="middle" class="node-title">break loop</text>
  <text x="770.0" y="507.0" text-anchor="middle" class="node-sub">表处理完成</text>
  <rect x="310.0" y="560.0" width="340.0" height="80.0" rx="10.0" fill="#dcfce7" stroke="#16a34a" stroke-width="1.8" filter="url(#shadowSoft)"/>
  <text x="480.0" y="600.0" text-anchor="middle" class="node-title">Resolve / Merge</text>
  <text x="480.0" y="622.0" text-anchor="middle" class="node-sub">强键归并(_STRONG_KEYS) · 弱键 name 簇 + LLM 消歧</text>
  <rect x="320.0" y="670.0" width="320.0" height="70.0" rx="10.0" fill="#dcfce7" stroke="#16a34a" stroke-width="1.8" filter="url(#shadowSoft)"/>
  <text x="480.0" y="705.0" text-anchor="middle" class="node-title">Score</text>
  <text x="480.0" y="727.0" text-anchor="middle" class="node-sub">LLM veracity/timeliness · 失败兜底 0</text>
  <rect x="220.0" y="765.0" width="540.0" height="90.0" rx="10.0" fill="#dcfce7" stroke="#16a34a" stroke-width="1.8" filter="url(#shadowSoft)"/>
  <text x="490.0" y="810.0" text-anchor="middle" class="node-title">Write</text>
  <text x="490.0" y="832.0" text-anchor="middle" class="node-sub">upsert profile(PG) · upsert_profile_node(Neo4j,PK) · 结构化关系(relation_rules) + content_mine 关系
name→PK(NameIndex批内)+ensure卫星 → write_relations(Neo4j) · record_error(不杀批)/unmapped→relation_staging</text>
  <rect x="250.0" y="860.0" width="240.0" height="50.0" rx="10.0" fill="#dbeafe" stroke="#2563eb" stroke-width="1.8" filter="url(#shadowSoft)"/>
  <text x="370.0" y="885.0" text-anchor="middle" class="node-title">set last_id:{table}</text>
  <text x="370.0" y="907.0" text-anchor="middle" class="node-sub">_process_batch 内 · BEFORE commit</text>
  <rect x="540.0" y="860.0" width="240.0" height="50.0" rx="10.0" fill="#dbeafe" stroke="#2563eb" stroke-width="1.8" filter="url(#shadowSoft)"/>
  <text x="660.0" y="885.0" text-anchor="middle" class="node-title">commit (原子)</text>
  <text x="660.0" y="907.0" text-anchor="middle" class="node-sub">watermark + profile 同事务</text>
  <rect x="602.0" y="257.0" width="36" height="20" rx="6" fill="#ffffff" opacity="0.94"/>
  <text x="620.0" y="271.0" text-anchor="middle" class="arrow-label">是</text>
  <rect x="444.0" y="298.5" width="36" height="20" rx="6" fill="#ffffff" opacity="0.94"/>
  <text x="462.0" y="312.5" text-anchor="middle" class="arrow-label">否</text>
  <rect x="602.0" y="455.0" width="36" height="20" rx="6" fill="#ffffff" opacity="0.94"/>
  <text x="620.0" y="469.0" text-anchor="middle" class="arrow-label">是</text>
  <rect x="444.0" y="528.5" width="36" height="20" rx="6" fill="#ffffff" opacity="0.94"/>
  <text x="462.0" y="542.5" text-anchor="middle" class="arrow-label">否</text>
  <rect x="781.5" y="613.5" width="161" height="20" rx="6" fill="#ffffff" opacity="0.94"/>
  <text x="862.0" y="627.5" text-anchor="middle" class="arrow-label">resume from watermark</text>
  <line x1="42.0" y1="840.0" x2="72.0" y2="840.0" stroke="#f97316" stroke-width="2.4" marker-end="url(#arrowE)"/>
  <text x="82.0" y="844.0" class="legend">主流程</text>
  <line x1="42.0" y1="862.0" x2="72.0" y2="862.0" stroke="#ef4444" stroke-width="2.4" marker-end="url(#arrowG)"/>
  <text x="82.0" y="866.0" class="legend">分支/回环</text>
  <line x1="42.0" y1="884.0" x2="72.0" y2="884.0" stroke="#10b981" stroke-width="2.4" marker-end="url(#arrowB)"/>
  <text x="82.0" y="888.0" class="legend">原子提交</text>
</svg>